#!OML:ASF X:\für Bonn\!DataBase\2005_08_10_Bjorn_Final\c3d\bjorn.ASF
:FULLY-SPECIFIED
:DEGREES
31
root -3.03803 18.9617 14.2885 -532.198 9.38146 -535.842
lowerback 17.6777 2.14116 -7.60822
upperback 18.2639 8.16454 -5.25192
thorax 10.7796 5.73372 -1.84801
lowerneck -3.67435 -1.23073 0.954147
upperneck -15.2746 -2.30813 4.50761
head -4.33872 -1.94636 1.45315
rclavicle -6.36111e-015 4.37326e-014
rhumerus -13.7265 2.80653 -99.3945
rradius 61.5344
rwrist 8.21592
rhand -26.2829 16.0353
rfingers 7.12502
rthumb 0.272549 -13.9443
lclavicle -6.36111e-015 4.37326e-014
lhumerus 3.29089 -21.1251 82.1206
lradius 36.6719
lwrist 21.4289
lhand -25.7115 -2.6751
lfingers 7.12502
lthumb 0.82438 27.3031
rfemur 330.083 -3.79364 -346.305
rtibia 44.3452
rfoot -12.7474 12.6546
rtoes -12.6289
lfemur -25.8889 1.3824 -11.4668
ltibia 38.2452
lfoot -15.7581 -5.96596
ltoes -19.7866
32
root -3.03137 18.9628 14.3624 -531.948 9.37362 -535.843
lowerback 17.7019 2.24218 -7.71774
upperback 18.2204 8.27949 -5.26628
thorax 10.7082 5.77799 -1.82195
lowerneck -3.66828 -1.22814 1.10412
upperneck -15.3258 -2.31066 4.45946
head -4.3607 -1.95641 1.41231
rclavicle 5.725e-014 -8.98507e-014
rhumerus -13.5551 3.29297 -99.5737
rradius 61.9214
rwrist 8.66834
rhand -26.7434 16.2831
rfingers 7.12502
rthumb -0.172213 -13.6966
lclavicle 5.725e-014 -8.98507e-014
lhumerus 3.34725 -21.182 82.173
lradius 36.7121
lwrist 22.2035
lhand -25.7077 -2.6182
lfingers 7.12502
lthumb 0.82807 27.3599
rfemur 330.579 -3.92684 -346.257
rtibia 44.555
rfoot -13.0992 12.3439
rtoes -12.9269
lfemur -26.4413 1.44124 -11.3926
ltibia 38.2791
lfoot -15.4522 -6.10438
ltoes -19.1861
33
root -3.0255 18.963 14.435 -531.717 9.36824 -535.85
lowerback 17.7289 2.33582 -7.81423
upperback 18.1798 8.3842 -5.27432
thorax 10.6383 5.81808 -1.79551
lowerneck -3.64736 -1.22769 1.24579
upperneck -15.3854 -2.31576 4.40823
head -4.38859 -1.96745 1.37248
rclavicle -3.81667e-014 1.59028e-014
rhumerus -13.3754 3.79357 -99.7296
rradius 62.3567
rwrist 9.10187
rhand -27.1788 16.4082
rfingers 7.12502
rthumb -0.592731 -13.5707
lclavicle -3.81667e-014 1.59028e-014
lhumerus 3.47927 -21.3506 82.1747
lradius 36.6771
lwrist 23.0637
lhand -25.7202 -2.47196
lfingers 7.12502
lthumb 0.81594 27.5062
rfemur 331.095 -4.07463 -346.206
rtibia 44.7189
rfoot -13.4834 12.0167
rtoes -13.5248
lfemur -26.9794 1.48991 -11.3303
ltibia 38.3223
lfoot -15.1542 -6.2136
ltoes -18.8064
34
root -3.02024 18.9607 14.5056 -531.529 9.40799 -535.872
lowerback 17.7675 2.44875 -7.90847
upperback 18.1164 8.50084 -5.28657
thorax 10.5333 5.86308 -1.78016
lowerneck -3.52395 -1.23455 1.43446
upperneck -15.4731 -2.32665 4.31967
head -4.44749 -1.9817 1.31459
rclavicle 3.18055e-015 -8.0309e-014
rhumerus -13.2432 4.28455 -99.8869
rradius 62.8136
rwrist 9.45703
rhand -27.6611 16.5069
rfingers 7.12502
rthumb -1.05863 -13.4702
lclavicle 3.18055e-015 -8.0309e-014
lhumerus 3.53759 -21.6245 82.1774
lradius 36.6496
lwrist 23.8886
lhand -25.8091 -2.16313
lfingers 7.12502
lthumb 0.730093 27.8154
rfemur 331.656 -4.207 -346.171
rtibia 44.8264
rfoot -13.8843 11.6544
rtoes -14.2236
lfemur -27.4647 1.59085 -11.2931
ltibia 38.376
lfoot -14.8607 -6.35003
ltoes -18.2057
35
root -3.01495 18.9589 14.5737 -531.374 9.4797 -535.896
lowerback 17.8214 2.57103 -8.00669
upperback 18.0284 8.61096 -5.29783
thorax 10.3873 5.90183 -1.76619
lowerneck -3.32535 -1.24708 1.58072
upperneck -15.5661 -2.33373 4.26833
head -4.52246 -1.9921 1.27809
rclavicle -1.59028e-014 -1.98785e-014
rhumerus -13.1568 4.75609 -100.053
rradius 63.301
rwrist 9.80335
rhand -28.1443 16.5931
rfingers 7.12502
rthumb -1.52528 -13.3812
lclavicle -1.59028e-014 -1.98785e-014
lhumerus 3.55324 -21.9977 82.1537
lradius 36.5939
lwrist 24.679
lhand -25.9497 -1.76497
lfingers 7.12502
lthumb 0.594362 28.2139
rfemur 332.254 -4.36565 -346.136
rtibia 44.8673
rfoot -14.3035 11.3672
rtoes -14.8856
lfemur -27.8945 1.67011 -11.2567
ltibia 38.4331
lfoot -14.5937 -6.43701
ltoes -17.622
36
root -3.00956 18.9561 14.6397 -531.216 9.57555 -535.922
lowerback 17.799 2.68613 -8.1032
upperback 17.962 8.72559 -5.30349
thorax 10.3081 5.94044 -1.73625
lowerneck -3.0927 -1.25511 1.71416
upperneck -15.7465 -2.33892 4.21566
head -4.63694 -2.00709 1.24667
rclavicle 3.18055e-014 -3.33958e-014
rhumerus -12.992 5.22546 -100.209
rradius 63.7657
rwrist 10.157
rhand -28.7278 16.651
rfingers 7.12502
rthumb -2.08886 -13.3185
lclavicle 3.18055e-014 -3.33958e-014
lhumerus 3.61648 -22.4469 82.1169
lradius 36.5301
lwrist 25.3685
lhand -26.1353 -1.1875
lfingers 7.12502
lthumb 0.415069 28.7918
rfemur 332.852 -4.52067 -346.094
rtibia 44.8266
rfoot -14.7489 11.0236
rtoes -15.7496
lfemur -28.3179 1.77075 -11.229
ltibia 38.4985
lfoot -14.3159 -6.49826
ltoes -17.0473
37
root -3.0045 18.9528 14.7035 -531.069 9.68676 -535.971
lowerback 17.743 2.79329 -8.21963
upperback 17.8948 8.82763 -5.31297
thorax 10.2445 5.96888 -1.69478
lowerneck -2.89345 -1.26016 1.79663
upperneck -15.919 -2.33859 4.2085
head -4.74168 -2.01942 1.23873
rclavicle -1.74931e-014 4.45278e-014
rhumerus -12.8337 5.71909 -100.362
rradius 64.2862
rwrist 10.3879
rhand -29.3034 16.7599
rfingers 7.12502
rthumb -2.64476 -13.2034
lclavicle -1.74931e-014 4.45278e-014
lhumerus 3.67224 -22.9479 82.0693
lradius 36.4513
lwrist 25.9691
lhand -26.4574 -0.648925
lfingers 7.12502
lthumb 0.103966 29.3308
rfemur 333.447 -4.70963 -346.059
rtibia 44.6968
rfoot -15.219 10.6464
rtoes -16.758
lfemur -28.7262 1.82072 -11.2207
ltibia 38.5681
lfoot -14.0604 -6.51567
ltoes -16.4503
38
root -2.99831 18.9473 14.7641 -530.936 9.8489 -536.019
lowerback 17.6249 2.90136 -8.35913
upperback 17.8473 8.94039 -5.31615
thorax 10.2353 5.99762 -1.62543
lowerneck -2.8034 -1.23772 1.86128
upperneck -16.0432 -2.30956 4.19734
head -4.80749 -2.01581 1.22826
rclavicle 1.59028e-014 -8.26944e-014
rhumerus -12.649 6.24805 -100.492
rradius 64.8394
rwrist 10.5878
rhand -29.8212 16.9066
rfingers 7.12502
rthumb -3.14476 -13.05
lclavicle 1.59028e-014 -8.26944e-014
lhumerus 3.77339 -23.4617 82.0096
lradius 36.3716
lwrist 26.5735
lhand -26.7984 -0.108207
lfingers 7.12502
lthumb -0.225402 29.8714
rfemur 334.052 -4.8971 -346.015
rtibia 44.4754
rfoot -15.6666 10.3317
rtoes -17.3696
lfemur -29.0945 1.88387 -11.2137
ltibia 38.6461
lfoot -13.8126 -6.47388
ltoes -15.8807
39
root -2.99161 18.9422 14.8234 -530.827 10.0236 -536.053
lowerback 17.4978 3.00047 -8.43649
upperback 17.8055 9.05762 -5.34012
thorax 10.248 6.03917 -1.60998
lowerneck -2.72043 -1.22494 1.97677
upperneck -16.2059 -2.30038 4.1628
head -4.88724 -2.02729 1.20259
rclavicle -7.95139e-015 -8.26944e-014
rhumerus -12.4153 6.71935 -100.65
rradius 65.3805
rwrist 10.7481
rhand -30.3245 17.0775
rfingers 7.12502
rthumb -3.63083 -12.8714
lclavicle -7.95139e-015 -8.26944e-014
lhumerus 3.88189 -24.0553 81.9147
lradius 36.2959
lwrist 27.0977
lhand -27.1575 0.321059
lfingers 7.12502
lthumb -0.57224 30.3
rfemur 334.667 -5.11353 -345.936
rtibia 44.1787
rfoot -16.1012 9.97604
rtoes -17.8186
lfemur -29.4289 1.9058 -11.1802
ltibia 38.7274
lfoot -13.5815 -6.3792
ltoes -15.261
40
root -2.98427 18.9358 14.88 -530.749 10.1986 -536.073
lowerback 17.3647 3.08212 -8.47216
upperback 17.7724 9.15896 -5.36224
thorax 10.2779 6.07757 -1.61128
lowerneck -2.62952 -1.20266 2.09683
upperneck -16.3891 -2.28309 4.09681
head -4.97715 -2.03502 1.16579
rclavicle 2.8625e-014 1.66979e-014
rhumerus -12.1843 7.20277 -100.789
rradius 65.9618
rwrist 10.9338
rhand -30.8447 17.2671
rfingers 7.12502
rthumb -4.13322 -12.6725
lclavicle 2.8625e-014 1.66979e-014
lhumerus 3.97971 -24.6817 81.7964
lradius 36.2634
lwrist 27.4907
lhand -27.4927 0.780018
lfingers 7.12502
lthumb -0.895918 30.7579
rfemur 335.305 -5.34918 -345.829
rtibia 43.8166
rfoot -16.5859 9.60506
rtoes -18.264
lfemur -29.7146 1.92269 -11.1265
ltibia 38.8121
lfoot -13.3497 -6.30608
ltoes -14.5754
41
root -2.97626 18.9299 14.9358 -530.696 10.3925 -536.094
lowerback 17.2231 3.15559 -8.49201
upperback 17.7352 9.24874 -5.39132
thorax 10.3096 6.11167 -1.62658
lowerneck -2.31015 -1.1786 2.16879
upperneck -17.136 -2.21812 4.14479
head -4.73929 -2.0477 1.04709
rclavicle 1.27222e-014 -8.74653e-015
rhumerus -11.9502 7.64624 -100.948
rradius 66.5309
rwrist 11.193
rhand -31.2639 17.4868
rfingers 7.12502
rthumb -4.53796 -12.4446
lclavicle 1.27222e-014 -8.74653e-015
lhumerus 4.04524 -25.3186 81.6714
lradius 36.2618
lwrist 27.7146
lhand -27.7839 1.26039
lfingers 7.12502
lthumb -1.17717 31.2369
rfemur 335.928 -5.62593 -345.712
rtibia 43.4128
rfoot -17.0787 9.22437
rtoes -18.8228
lfemur -29.956 1.94794 -11.076
ltibia 38.8908
lfoot -13.1608 -6.19515
ltoes -14.0917
